Coordinates
version=1
nRows=22
nColumns=18
inDegrees=yes

Units are S.I. units (second, meters, Newtons, ...)
Angles are in degrees.

endheader
time	pelvis_tilt	pelvis_list	pelvis_rotation	pelvis_tx	pelvis_ty	pelvis_tz	hip_flexion_r	hip_adduction_r	hip_rotation_r	knee_angle_r	ankle_angle_r	hip_flexion_l	hip_adduction_l	hip_rotation_l	knee_angle_l	ankle_angle_l	lumbar_extension
      2.65000000	      2.35606687	     -2.60410067	     -5.13934020	      1.17018723	      0.80113311	     -0.32422052	     15.26320162	      8.44019480	      0.00000000	    -35.32239324	     20.31730058	    -19.50930430	     -2.00544914	      0.00000000	    -31.00407075	    -10.46530416	     -5.00000214
      2.66000000	      2.07774443	     -2.58880549	     -4.82946491	      1.17890215	      0.80164259	     -0.32328311	     14.86478668	      8.42589963	      0.00000000	    -35.32180639	     20.26751794	    -16.65160821	     -2.31172637	      0.00000000	    -35.06147141	     -9.02166872	     -5.00000214
      2.67000000	      1.75558057	     -2.59459444	     -4.50495986	      1.18721116	      0.80213394	     -0.32236772	     14.42004544	      8.46016431	      0.00000000	    -35.11018029	     20.14021167	    -13.73185372	     -2.64385025	      0.00000000	    -38.88742401	     -6.70861778	     -5.00000214
      2.68000000	      1.38760682	     -2.64867774	     -4.15814208	      1.19515037	      0.80267056	     -0.32134725	     13.92755092	      8.58427479	      0.00000000	    -34.66777185	     20.00631890	    -10.75418713	     -3.04672119	      0.00000000	    -42.43295007	     -4.75538318	     -5.00000214
      2.69000000	      1.01308927	     -2.73588404	     -3.78568826	      1.20295120	      0.80333323	     -0.32033067	     13.33019854	      8.76213735	      0.00000000	    -33.97604270	     19.87030575	     -7.83592658	     -3.48821659	      0.00000000	    -45.56798187	     -2.86975029	     -5.00000214
      2.70000000	      0.62904328	     -2.78593224	     -3.42698426	      1.21051185	      0.80393560	     -0.31945309	     12.82800299	      8.90386740	      0.00000000	    -33.39708525	     19.66755664	     -4.94526664	     -3.85284904	      0.00000000	    -48.34255113	     -0.54117925	     -5.00000214
      2.71000000	      0.25538193	     -2.84991703	     -3.05955905	      1.21807832	      0.80466298	     -0.31860918	     12.26407245	      9.05974241	      0.00000000	    -32.69143286	     19.47716797	     -2.15860483	     -4.21063628	      0.00000000	    -50.67118536	      1.62591825	     -5.00000214
      2.72000000	     -0.09096841	     -2.90162112	     -2.70914439	      1.22570076	      0.80547170	     -0.31785101	     11.70647373	      9.20660201	      0.00000000	    -32.03052354	     19.26757629	      0.46920521	     -4.49945823	      0.00000000	    -52.49247170	      3.93710937	     -5.00000214
      2.73000000	     -0.40292374	     -2.94348141	     -2.33878375	      1.23339559	      0.80633969	     -0.31720987	     11.13295556	      9.33188972	      0.00000000	    -31.40166497	     19.07125329	      2.97050310	     -4.74473261	      0.00000000	    -53.90027283	      5.97545083	     -5.00000214
      2.74000000	     -0.70704084	     -2.96665456	     -2.00035589	      1.24112120	      0.80728838	     -0.31668129	     10.57653131	      9.42583600	      0.00000000	    -30.80311209	     18.88375440	      5.34010324	     -4.90754877	      0.00000000	    -54.84219491	      7.77896797	     -5.00000214
      2.75000000	     -0.97869620	     -2.94085756	     -1.70769778	      1.24896740	      0.80829496	     -0.31633901	     10.01054155	      9.44118618	      0.00000000	    -30.26944471	     18.66430892	      7.51376832	     -4.93193033	      0.00000000	    -55.30904212	      9.63392158	     -5.00000214
      2.76000000	     -1.23793555	     -2.87719558	     -1.46572427	      1.25687343	      0.80937945	     -0.31615517	      9.43414320	      9.38840921	      0.00000000	    -29.75084836	     18.44320511	      9.51893091	     -4.83965460	      0.00000000	    -55.31223493	     11.15711391	     -5.00000214
      2.77000000	     -1.48568257	     -2.78018728	     -1.27644539	      1.26484228	      0.81050621	     -0.31610409	      8.82496870	      9.27812496	      0.00000000	    -29.20730077	     18.19769993	     11.35229406	     -4.64390806	      0.00000000	    -54.87873267	     12.47993375	     -5.00000214
      2.78000000	     -1.74292831	     -2.61353016	     -1.17532264	      1.27278581	      0.81166430	     -0.31626227	      8.22544719	      9.05640234	      0.00000000	    -28.66752498	     18.13113037	     13.04121835	     -4.28877447	      0.00000000	    -54.02366207	     12.91421351	     -5.00000214
      2.79000000	     -1.94421685	     -2.49740552	     -1.10061204	      1.28105518	      0.81287839	     -0.31631584	      7.41917709	      8.88525937	      0.00000000	    -27.90289727	     17.64036566	     14.43458307	     -3.99093809	      0.00000000	    -52.68414809	     14.49687314	     -5.00000214
      2.80000000	     -2.17727322	     -2.31468354	     -1.13404598	      1.28924269	      0.81404050	     -0.31653329	      6.66827324	      8.60718512	      0.00000000	    -27.17545252	     17.30671273	     15.69413801	     -3.56443464	      0.00000000	    -50.93568997	     15.23209054	     -5.00000214
      2.81000000	     -2.40839263	     -2.13513572	     -1.22245576	      1.29751041	      0.81515544	     -0.31672805	      5.85159854	      8.32318922	      0.00000000	    -26.33008016	     16.93724961	     16.76554817	     -3.14137082	      0.00000000	    -48.78521385	     15.88196805	     -5.00000214
      2.82000000	     -2.64513287	     -1.96400953	     -1.36896875	      1.30585205	      0.81616079	     -0.31685771	      4.98067977	      8.04136945	      0.00000000	    -25.38249965	     16.49836554	     17.66840064	     -2.74836638	      0.00000000	    -46.26470449	     16.46523845	     -5.00000214
      2.83000000	     -2.89123385	     -1.77553875	     -1.58168139	      1.31420873	      0.81701494	     -0.31701855	      4.15750705	      7.72563529	      0.00000000	    -24.50140337	     16.11795406	     18.37423408	     -2.34491676	      0.00000000	    -43.32076621	     16.89360612	     -5.00000214
      2.84000000	     -3.11422735	     -1.61006103	     -1.81707019	      1.32278252	      0.81772893	     -0.31710700	      3.25008768	      7.43346543	      0.00000000	    -23.53165069	     15.68036122	     18.85056534	     -2.00797913	      0.00000000	    -39.99519166	     17.24072830	     -5.00000214
      2.85000000	     -3.32813230	     -1.48631190	     -2.07500355	      1.33145237	      0.81826565	     -0.31704734	      2.33658882	      7.19761035	      0.00000000	    -22.57503581	     15.15208530	     19.09316261	     -1.76189610	      0.00000000	    -36.26273333	     17.41356766	     -5.00000214
      2.86000000	     -3.58827240	     -1.32400668	     -2.41300767	      1.33996699	      0.81841600	     -0.31708707	      1.67447604	      6.89943770	      0.00000000	    -21.99140959	     14.91795161	     19.20185553	     -1.49434381	      0.00000000	    -32.19406242	     17.41971090	     -5.00000214
